<svg width="512" height="512" viewBox="0 0 512 512" fill="none" xmlns="http://www.w3.org/2000/svg" role="img" aria-labelledby="title desc">
  <title id="title">Concept 4: Orbit Assembly</title>
  <desc id="desc">Four agent forms orbit and energize a central intelligence engine.</desc>
  <rect width="512" height="512" rx="128" fill="#F5F7FB"/>
  <circle cx="256" cy="256" r="152" stroke="#CBD5E1" stroke-width="12"/>
  <path d="M256 166L311 200V312L256 346L201 312V200L256 166Z" fill="#0F172A"/>
  <path d="M256 202L282 234V278L256 310L230 278V234L256 202Z" fill="#FAF7EF"/>
  <circle cx="256" cy="256" r="16" fill="#F59E0B"/>
  <path d="M256 104C289.137 104 316 130.863 316 164V176H196V164C196 130.863 222.863 104 256 104Z" fill="#18A999"/>
  <circle cx="256" cy="152" r="24" fill="#0F172A"/>
  <path d="M408 256C408 289.137 381.137 316 348 316H336V196H348C381.137 196 408 222.863 408 256Z" fill="#F59E0B"/>
  <circle cx="360" cy="256" r="24" fill="#0F172A"/>
  <path d="M256 408C222.863 408 196 381.137 196 348V336H316V348C316 381.137 289.137 408 256 408Z" fill="#18A999"/>
  <circle cx="256" cy="360" r="24" fill="#0F172A"/>
  <path d="M104 256C104 222.863 130.863 196 164 196H176V316H164C130.863 316 104 289.137 104 256Z" fill="#F59E0B"/>
  <circle cx="152" cy="256" r="24" fill="#0F172A"/>
  <path d="M256 176V208" stroke="#94A3B8" stroke-width="10" stroke-linecap="round"/>
  <path d="M336 256H304" stroke="#94A3B8" stroke-width="10" stroke-linecap="round"/>
  <path d="M256 336V304" stroke="#94A3B8" stroke-width="10" stroke-linecap="round"/>
  <path d="M176 256H208" stroke="#94A3B8" stroke-width="10" stroke-linecap="round"/>
</svg>
